<svg xmlns="http://www.w3.org/2000/svg" xmlns:xlink="http://www.w3.org/1999/xlink" width="500" zoomAndPan="magnify" viewBox="0 0 375 187.499995" height="250" preserveAspectRatio="xMidYMid meet" version="1.0"><defs><g/><clipPath id="1cd58b789b"><path d="M 49 50.515625 L 58 50.515625 L 58 70 L 49 70 Z M 49 50.515625 " clip-rule="nonzero"/></clipPath><clipPath id="f469534ff4"><path d="M 10.359375 89 L 30 89 L 30 98 L 10.359375 98 Z M 10.359375 89 " clip-rule="nonzero"/></clipPath><clipPath id="10d8b34eba"><path d="M 49 117 L 58 117 L 58 136.535156 L 49 136.535156 Z M 49 117 " clip-rule="nonzero"/></clipPath><clipPath id="fb3f902e68"><path d="M 76 89 L 96.378906 89 L 96.378906 98 L 76 98 Z M 76 89 " clip-rule="nonzero"/></clipPath></defs><g clip-path="url(#1cd58b789b)"><path fill="#ffffff" d="M 53.339844 50.515625 C 51.042969 50.515625 49.179688 52.378906 49.179688 54.675781 L 49.179688 65.765625 C 49.179688 68.0625 51.042969 69.925781 53.339844 69.925781 C 55.636719 69.925781 57.5 68.0625 57.5 65.765625 L 57.5 54.675781 C 57.5 52.378906 55.636719 50.515625 53.339844 50.515625 Z M 53.339844 50.515625 " fill-opacity="1" fill-rule="nonzero"/></g><g clip-path="url(#f469534ff4)"><path fill="#ffffff" d="M 29.769531 93.496094 C 29.769531 91.199219 27.90625 89.335938 25.609375 89.335938 L 14.519531 89.335938 C 12.222656 89.335938 10.359375 91.199219 10.359375 93.496094 C 10.359375 95.792969 12.222656 97.65625 14.519531 97.65625 L 25.609375 97.65625 C 27.90625 97.65625 29.769531 95.792969 29.769531 93.496094 Z M 29.769531 93.496094 " fill-opacity="1" fill-rule="nonzero"/></g><path fill="#ffffff" d="M 30.789062 110.164062 L 22.949219 118.007812 C 21.324219 119.632812 21.324219 122.265625 22.949219 123.890625 C 23.761719 124.703125 24.824219 125.109375 25.890625 125.109375 C 26.953125 125.109375 28.019531 124.703125 28.832031 123.890625 L 36.671875 116.046875 C 38.296875 114.421875 38.296875 111.789062 36.671875 110.164062 C 35.046875 108.539062 32.414062 108.539062 30.789062 110.164062 Z M 30.789062 110.164062 " fill-opacity="1" fill-rule="nonzero"/><g clip-path="url(#10d8b34eba)"><path fill="#ffffff" d="M 53.339844 117.066406 C 51.042969 117.066406 49.179688 118.929688 49.179688 121.226562 L 49.179688 132.320312 C 49.179688 134.617188 51.042969 136.476562 53.339844 136.476562 C 55.636719 136.476562 57.5 134.617188 57.5 132.320312 L 57.5 121.226562 C 57.5 118.929688 55.636719 117.066406 53.339844 117.066406 Z M 53.339844 117.066406 " fill-opacity="1" fill-rule="nonzero"/></g><path fill="#ffffff" d="M 75.890625 110.164062 C 74.265625 108.539062 71.632812 108.539062 70.007812 110.164062 C 68.382812 111.789062 68.382812 114.421875 70.007812 116.046875 L 77.851562 123.890625 C 78.664062 124.703125 79.726562 125.109375 80.792969 125.109375 C 81.855469 125.109375 82.917969 124.703125 83.730469 123.890625 C 85.355469 122.265625 85.355469 119.632812 83.730469 118.007812 Z M 75.890625 110.164062 " fill-opacity="1" fill-rule="nonzero"/><g clip-path="url(#fb3f902e68)"><path fill="#ffffff" d="M 92.160156 89.335938 L 81.070312 89.335938 C 78.773438 89.335938 76.910156 91.199219 76.910156 93.496094 C 76.910156 95.792969 78.773438 97.65625 81.070312 97.65625 L 92.160156 97.65625 C 94.457031 97.65625 96.320312 95.792969 96.320312 93.496094 C 96.320312 91.199219 94.457031 89.335938 92.160156 89.335938 Z M 92.160156 89.335938 " fill-opacity="1" fill-rule="nonzero"/></g><path fill="#ffffff" d="M 72.949219 78.046875 C 74.011719 78.046875 75.078125 77.640625 75.890625 76.828125 L 83.730469 68.988281 C 85.355469 67.363281 85.355469 64.730469 83.730469 63.105469 C 82.105469 61.480469 79.476562 61.480469 77.851562 63.105469 L 70.007812 70.949219 C 68.382812 72.574219 68.382812 75.203125 70.007812 76.828125 C 70.820312 77.640625 71.882812 78.046875 72.949219 78.046875 Z M 72.949219 78.046875 " fill-opacity="1" fill-rule="nonzero"/><g fill="#ffffff" fill-opacity="1"><g transform="translate(119.984029, 112.049531)"><g><path d="M 18.0625 0 L 10.578125 0 L 10.578125 -29.078125 L 0.984375 -29.078125 L 0.984375 -35.296875 L 27.640625 -35.296875 L 27.640625 -29.078125 L 18.0625 -29.078125 Z M 18.0625 0 "/></g></g></g><g fill="#ffffff" fill-opacity="1"><g transform="translate(148.625715, 112.049531)"><g><path d="M 15.046875 -22.265625 C 13.484375 -22.265625 12.257812 -21.769531 11.375 -20.78125 C 10.488281 -19.789062 9.984375 -18.382812 9.859375 -16.5625 L 20.1875 -16.5625 C 20.15625 -18.382812 19.679688 -19.789062 18.765625 -20.78125 C 17.847656 -21.769531 16.609375 -22.265625 15.046875 -22.265625 Z M 16.078125 0.484375 C 11.734375 0.484375 8.335938 -0.710938 5.890625 -3.109375 C 3.441406 -5.515625 2.21875 -8.914062 2.21875 -13.3125 C 2.21875 -17.832031 3.347656 -21.328125 5.609375 -23.796875 C 7.867188 -26.265625 11 -27.5 15 -27.5 C 18.8125 -27.5 21.78125 -26.410156 23.90625 -24.234375 C 26.03125 -22.066406 27.09375 -19.066406 27.09375 -15.234375 L 27.09375 -11.65625 L 9.6875 -11.65625 C 9.757812 -9.570312 10.375 -7.941406 11.53125 -6.765625 C 12.695312 -5.585938 14.328125 -5 16.421875 -5 C 18.046875 -5 19.582031 -5.164062 21.03125 -5.5 C 22.476562 -5.84375 23.992188 -6.382812 25.578125 -7.125 L 25.578125 -1.421875 C 24.285156 -0.773438 22.90625 -0.296875 21.4375 0.015625 C 19.976562 0.328125 18.191406 0.484375 16.078125 0.484375 Z M 16.078125 0.484375 "/></g></g></g><g fill="#ffffff" fill-opacity="1"><g transform="translate(177.846995, 112.049531)"><g><path d="M 14.828125 0.484375 C 6.421875 0.484375 2.21875 -4.128906 2.21875 -13.359375 C 2.21875 -17.941406 3.359375 -21.441406 5.640625 -23.859375 C 7.929688 -26.285156 11.210938 -27.5 15.484375 -27.5 C 18.597656 -27.5 21.394531 -26.890625 23.875 -25.671875 L 21.703125 -19.96875 C 20.546875 -20.4375 19.46875 -20.816406 18.46875 -21.109375 C 17.46875 -21.410156 16.472656 -21.5625 15.484375 -21.5625 C 11.648438 -21.5625 9.734375 -18.84375 9.734375 -13.40625 C 9.734375 -8.125 11.648438 -5.484375 15.484375 -5.484375 C 16.898438 -5.484375 18.207031 -5.671875 19.40625 -6.046875 C 20.613281 -6.421875 21.820312 -7.015625 23.03125 -7.828125 L 23.03125 -1.515625 C 21.84375 -0.765625 20.640625 -0.242188 19.421875 0.046875 C 18.210938 0.335938 16.679688 0.484375 14.828125 0.484375 Z M 14.828125 0.484375 "/></g></g></g><g fill="#ffffff" fill-opacity="1"><g transform="translate(203.276762, 112.049531)"><g><path d="M 28.78125 0 L 21.421875 0 L 21.421875 -15.765625 C 21.421875 -19.660156 19.972656 -21.609375 17.078125 -21.609375 C 15.015625 -21.609375 13.523438 -20.90625 12.609375 -19.5 C 11.691406 -18.101562 11.234375 -15.835938 11.234375 -12.703125 L 11.234375 0 L 3.859375 0 L 3.859375 -37.578125 L 11.234375 -37.578125 L 11.234375 -29.921875 C 11.234375 -29.328125 11.175781 -27.925781 11.0625 -25.71875 L 10.890625 -23.546875 L 11.28125 -23.546875 C 12.914062 -26.179688 15.519531 -27.5 19.09375 -27.5 C 22.269531 -27.5 24.675781 -26.644531 26.3125 -24.9375 C 27.957031 -23.238281 28.78125 -20.796875 28.78125 -17.609375 Z M 28.78125 0 "/></g></g></g><g fill="#ffffff" fill-opacity="1"><g transform="translate(235.782418, 112.049531)"><g><path d="M 35.765625 0 L 26.25 0 L 10.890625 -26.703125 L 10.671875 -26.703125 C 10.972656 -21.984375 11.125 -18.617188 11.125 -16.609375 L 11.125 0 L 4.4375 0 L 4.4375 -35.296875 L 13.890625 -35.296875 L 29.21875 -8.859375 L 29.390625 -8.859375 C 29.148438 -13.453125 29.03125 -16.695312 29.03125 -18.59375 L 29.03125 -35.296875 L 35.765625 -35.296875 Z M 35.765625 0 "/></g></g></g><g fill="#ffffff" fill-opacity="1"><g transform="translate(275.991873, 112.049531)"><g><path d="M 9.734375 -13.546875 C 9.734375 -10.867188 10.171875 -8.847656 11.046875 -7.484375 C 11.921875 -6.117188 13.347656 -5.4375 15.328125 -5.4375 C 17.296875 -5.4375 18.707031 -6.113281 19.5625 -7.46875 C 20.425781 -8.832031 20.859375 -10.859375 20.859375 -13.546875 C 20.859375 -16.222656 20.421875 -18.226562 19.546875 -19.5625 C 18.679688 -20.894531 17.257812 -21.5625 15.28125 -21.5625 C 13.320312 -21.5625 11.90625 -20.894531 11.03125 -19.5625 C 10.164062 -18.238281 9.734375 -16.234375 9.734375 -13.546875 Z M 28.390625 -13.546875 C 28.390625 -9.148438 27.226562 -5.710938 24.90625 -3.234375 C 22.59375 -0.753906 19.367188 0.484375 15.234375 0.484375 C 12.640625 0.484375 10.351562 -0.0820312 8.375 -1.21875 C 6.394531 -2.351562 4.875 -3.984375 3.8125 -6.109375 C 2.75 -8.234375 2.21875 -10.710938 2.21875 -13.546875 C 2.21875 -17.953125 3.367188 -21.378906 5.671875 -23.828125 C 7.972656 -26.273438 11.207031 -27.5 15.375 -27.5 C 17.96875 -27.5 20.253906 -26.9375 22.234375 -25.8125 C 24.210938 -24.6875 25.734375 -23.066406 26.796875 -20.953125 C 27.859375 -18.847656 28.390625 -16.378906 28.390625 -13.546875 Z M 28.390625 -13.546875 "/></g></g></g><g fill="#ffffff" fill-opacity="1"><g transform="translate(306.613844, 112.049531)"><g><path d="M 10.28125 0 L 0 -27 L 7.703125 -27 L 12.921875 -11.609375 C 13.492188 -9.660156 13.851562 -7.816406 14 -6.078125 L 14.15625 -6.078125 C 14.226562 -7.628906 14.585938 -9.472656 15.234375 -11.609375 L 20.421875 -27 L 28.125 -27 L 17.84375 0 Z M 10.28125 0 "/></g></g></g><g fill="#ffffff" fill-opacity="1"><g transform="translate(334.74839, 112.049531)"><g><path d="M 21.015625 0 L 19.578125 -3.671875 L 19.390625 -3.671875 C 18.148438 -2.109375 16.875 -1.023438 15.5625 -0.421875 C 14.25 0.179688 12.539062 0.484375 10.4375 0.484375 C 7.84375 0.484375 5.800781 -0.253906 4.3125 -1.734375 C 2.820312 -3.210938 2.078125 -5.320312 2.078125 -8.0625 C 2.078125 -10.925781 3.078125 -13.035156 5.078125 -14.390625 C 7.085938 -15.753906 10.113281 -16.507812 14.15625 -16.65625 L 18.828125 -16.8125 L 18.828125 -17.984375 C 18.828125 -20.722656 17.429688 -22.09375 14.640625 -22.09375 C 12.472656 -22.09375 9.9375 -21.441406 7.03125 -20.140625 L 4.59375 -25.109375 C 7.695312 -26.734375 11.140625 -27.546875 14.921875 -27.546875 C 18.546875 -27.546875 21.320312 -26.753906 23.25 -25.171875 C 25.1875 -23.597656 26.15625 -21.203125 26.15625 -17.984375 L 26.15625 0 Z M 18.828125 -12.515625 L 15.984375 -12.40625 C 13.847656 -12.34375 12.253906 -11.957031 11.203125 -11.25 C 10.160156 -10.539062 9.640625 -9.460938 9.640625 -8.015625 C 9.640625 -5.941406 10.828125 -4.90625 13.203125 -4.90625 C 14.910156 -4.90625 16.273438 -5.394531 17.296875 -6.375 C 18.316406 -7.351562 18.828125 -8.65625 18.828125 -10.28125 Z M 18.828125 -12.515625 "/></g></g></g></svg>